<?xml version="1.0" encoding="UTF-8" standalone="no" ?>
<!DOCTYPE svg PUBLIC "-//W3C//DTD SVG 1.1//EN" "http://www.w3.org/Graphics/SVG/1.1/DTD/svg11.dtd">
<svg xmlns="http://www.w3.org/2000/svg" xmlns:xlink="http://www.w3.org/1999/xlink" version="1.1" width="1280" height="1024" viewBox="0 0 1280 1024" xml:space="preserve">
<desc>Created with Fabric.js 3.6.3</desc>
<defs>
</defs>
<g transform="matrix(1.9692780337941629 0 0 1.9692780337941629 640.0153846153846 512.012312418764)" id="background-logo"  >
<rect style="stroke: none; stroke-width: 1; stroke-dasharray: none; stroke-linecap: butt; stroke-dashoffset: 0; stroke-linejoin: miter; stroke-miterlimit: 4; fill: rgb(255,255,255); fill-rule: nonzero; opacity: 1;"  paint-order="stroke"  x="-325" y="-260" rx="0" ry="0" width="650" height="520" />
</g>
<g transform="matrix(2.4992748158488656 0 0 2.499274815848866 640.0153846153846 385.3494821824763)" id="logo-logo"  >
<g style=""  paint-order="stroke"   >
		<g transform="matrix(2.567 0 0 -2.567 0 0)"  >
<path style="stroke: none; stroke-width: 1; stroke-dasharray: none; stroke-linecap: butt; stroke-dashoffset: 0; stroke-linejoin: miter; stroke-miterlimit: 4; fill: rgb(28,60,106); fill-rule: nonzero; opacity: 1;"  paint-order="stroke"  transform=" translate(17.05289277831576, -47.48838519993993)" d="m 0 0 c -4.486 0.113 -8.966 0.39 -13.414 0.882 c -4.451 0.463 -8.877 1.137 -13.221 2.125 c -4.341 0.989 -8.611 2.281 -12.658 4.045 c -4.04 1.756 -7.868 4 -11.112 6.876 c -3.242 2.867 -5.839 6.397 -7.454 10.358 c -1.639 3.955 -2.261 8.296 -2.161 12.628 c 0.094 4.336 0.896 8.64 2.623 12.546 c 1.691 3.919 4.295 7.408 7.511 10.258 c 3.208 2.865 6.974 5.123 10.961 6.908 c 3.99 1.791 8.212 3.109 12.504 4.154 c 8.607 2.056 17.523 2.915 26.434 3.137 c 8.905 0.192 17.908 -0.152 26.714 -1.227 l 2.2 -0.268 l -0.598 2.093 c -0.377 1.315 -0.953 2.594 -1.737 3.742 c -0.779 1.15 -1.759 2.159 -2.853 2.983 c -1.092 0.829 -2.298 1.471 -3.547 1.953 c -1.273 0.481 -2.492 0.82 -3.943 0.982 l 0.13 -0.018 c -0.191 0.035 -0.322 0.093 -0.463 0.21 c -0.137 0.121 -0.281 0.31 -0.397 0.57 c -0.119 0.255 -0.21 0.565 -0.273 0.894 c -0.062 0.314 -0.099 0.711 -0.1 0.977 l -0.003 0.856 l -0.718 0.331 c -11.96 5.509 -25.137 8.367 -38.251 8.134 c -6.555 -0.14 -13.077 -0.999 -19.423 -2.526 c -6.335 -1.538 -12.552 -3.675 -18.285 -6.749 c 2.926 1.411 5.986 2.515 9.075 3.483 c 3.09 0.973 6.228 1.782 9.398 2.418 c 6.339 1.275 12.801 1.876 19.238 1.769 c 6.437 -0.076 12.856 -0.839 19.099 -2.329 c 5.995 -1.425 11.822 -3.51 17.374 -6.154 c 0.018 -0.213 0.041 -0.422 0.076 -0.645 c 0.079 -0.49 0.202 -0.988 0.417 -1.495 c 0.21 -0.502 0.526 -1.025 0.999 -1.47 c 0.471 -0.449 1.112 -0.766 1.739 -0.889 l 0.012 -0.001 l 0.118 -0.016 c 0.988 -0.133 2.155 -0.461 3.164 -0.88 c 1.03 -0.428 1.998 -0.977 2.858 -1.639 c 1.11 -0.851 1.982 -1.933 2.631 -3.144 c -8.23 0.973 -16.45 1.376 -24.72 1.24 c -9.078 -0.193 -18.197 -1.026 -27.129 -3.121 c -4.46 -1.051 -8.866 -2.454 -13.087 -4.368 c -4.214 -1.908 -8.261 -4.342 -11.766 -7.495 c -3.508 -3.132 -6.409 -7.037 -8.269 -11.401 c -1.872 -4.365 -2.678 -9.102 -2.723 -13.755 c -0.054 -4.653 0.673 -9.415 2.541 -13.775 c 1.82 -4.379 4.818 -8.211 8.386 -11.22 c 3.576 -3.023 7.677 -5.286 11.924 -7.02 c 4.254 -1.735 8.673 -2.959 13.13 -3.867 c 4.46 -0.906 8.967 -1.485 13.483 -1.851 c 4.518 -0.333 9.044 -0.436 13.56 -0.38 c 9.03 0.138 18.05 0.834 26.94 2.307 C 17.981 0.184 8.976 -0.199 0 0" stroke-linecap="round" />
</g>
		<g transform="matrix(2.567 0 0 -2.567 39.301999999999964 -96.48600000000003)"  >
<path style="stroke: none; stroke-width: 1; stroke-dasharray: none; stroke-linecap: butt; stroke-dashoffset: 0; stroke-linejoin: miter; stroke-miterlimit: 4; fill: rgb(28,60,106); fill-rule: nonzero; opacity: 1;"  paint-order="stroke"  transform=" translate(4.457, 0)" d="m 0 0 c 0 -2.463 -1.993 -4.459 -4.459 -4.459 c -2.462 0 -4.455 1.996 -4.455 4.459 c 0 2.462 1.993 4.459 4.455 4.459 C -1.993 4.459 0 2.462 0 0" stroke-linecap="round" />
</g>
</g>
</g>
<g transform="matrix(1.9692780337941629 0 0 1.9692780337941629 641.2846868029607 800.1092010720315)" id="text-logo-path"  >
<path style="stroke: none; stroke-width: 1; stroke-dasharray: none; stroke-linecap: butt; stroke-dashoffset: 0; stroke-linejoin: miter; stroke-miterlimit: 4; fill: rgb(78,156,217); fill-rule: nonzero; opacity: 1;"  paint-order="stroke"  transform=" translate(-257.8, 24.95)" d="M 14.9 0 L 4.89 0 L 4.89 -49.7 L 14.9 -49.7 L 14.9 -36.61 L 35.68 -49.7 L 54.58 -49.7 L 28.06 -33.12 L 54.65 0 L 41.87 0 L 19.58 -27.86 L 14.9 -24.85 L 14.9 0 Z M 79.5 -23.58 L 59.75 -49.83 L 72.29 -49.83 L 84.66 -33.6 L 96.69 -49.83 L 109.31 -49.83 L 89.45 -23.58 L 89.45 0 L 79.5 0 L 79.5 -23.58 Z M 125.95 0 L 115.87 0 L 115.87 -49.83 L 150.73 -49.83 Q 153.88 -49.42 156.65 -47.95 Q 159.41 -46.48 161.41 -44.21 Q 163.41 -41.94 164.58 -39.14 Q 165.74 -36.33 165.74 -33.33 L 165.74 -33.33 L 165.74 -32.61 L 165.74 -31.92 Q 165.74 -29.91 165.17 -27.84 Q 164.61 -25.77 163.55 -23.91 Q 162.49 -22.05 161.05 -20.51 Q 159.62 -18.97 157.94 -17.91 L 157.94 -17.91 L 165.94 0 L 154.94 0 L 148.31 -15.11 L 125.95 -15.11 L 125.95 0 Z M 125.95 -40.2 L 125.95 -25.19 L 148.31 -25.19 Q 149.84 -25.19 151.21 -25.75 Q 152.58 -26.32 153.62 -27.33 Q 154.66 -28.33 155.26 -29.67 Q 155.86 -31 155.86 -32.61 L 155.86 -32.61 Q 155.86 -34.08 155.23 -35.44 Q 154.59 -36.81 153.54 -37.87 Q 152.48 -38.93 151.13 -39.56 Q 149.78 -40.2 148.31 -40.2 L 148.31 -40.2 L 125.95 -40.2 Z M 174.18 -17.36 L 174.18 -17.36 L 174.18 -32.33 Q 174.18 -35.89 175.55 -39.08 Q 176.91 -42.28 179.26 -44.62 Q 181.6 -46.96 184.78 -48.33 Q 187.95 -49.7 191.54 -49.7 L 191.54 -49.7 L 206.51 -49.7 Q 210.07 -49.7 213.26 -48.33 Q 216.46 -46.96 218.8 -44.62 Q 221.14 -42.28 222.51 -39.1 Q 223.88 -35.92 223.88 -32.33 L 223.88 -32.33 L 223.88 -17.36 Q 223.88 -13.81 222.51 -10.61 Q 221.14 -7.42 218.8 -5.08 Q 216.46 -2.73 213.28 -1.37 Q 210.1 0 206.51 0 L 206.51 0 L 191.54 0 Q 187.99 0 184.79 -1.37 Q 181.6 -2.73 179.26 -5.08 Q 176.91 -7.42 175.55 -10.6 Q 174.18 -13.77 174.18 -17.36 Z M 183.99 -32.33 L 183.99 -17.36 Q 183.99 -15.83 184.57 -14.49 Q 185.15 -13.16 186.21 -12.15 Q 187.27 -11.14 188.64 -10.58 Q 190 -10.01 191.54 -10.01 L 191.54 -10.01 L 206.51 -10.01 Q 209.66 -10.01 211.76 -12.12 Q 213.86 -14.22 213.86 -17.36 L 213.86 -17.36 L 213.86 -32.33 Q 213.86 -33.87 213.3 -35.24 Q 212.73 -36.61 211.73 -37.67 Q 210.72 -38.73 209.38 -39.31 Q 208.05 -39.89 206.51 -39.89 L 206.51 -39.89 L 191.54 -39.89 Q 189.94 -39.89 188.64 -39.27 Q 187.34 -38.66 186.28 -37.6 L 186.28 -37.6 Q 185.22 -36.54 184.6 -35.24 Q 183.99 -33.94 183.99 -32.33 L 183.99 -32.33 Z M 242.95 0 L 232.93 0 L 232.93 -49.77 L 239.6 -49.77 L 242.95 -49.77 L 272.92 -32.54 L 272.92 -49.77 L 282.94 -49.77 L 282.94 0 L 272.92 0 L 272.92 -21.12 L 242.95 -38.35 L 242.95 0 Z M 291.79 -14.97 L 291.79 -14.97 L 301.74 -14.97 Q 301.74 -13.02 303.28 -11.48 Q 304.81 -9.95 306.76 -9.95 L 306.76 -9.95 L 326.93 -9.95 Q 327.71 -9.95 328.59 -10.29 Q 329.46 -10.63 330.19 -11.3 Q 330.93 -11.96 331.41 -12.92 Q 331.88 -13.88 331.88 -14.97 L 331.88 -14.97 Q 331.88 -17.23 330.31 -18.59 Q 328.74 -19.96 326.93 -19.96 L 326.93 -19.96 L 306.76 -19.96 Q 303.55 -19.96 300.78 -21.14 Q 298.01 -22.32 296.01 -24.39 Q 294.01 -26.46 292.9 -29.16 Q 291.79 -31.86 291.79 -34.93 L 291.79 -34.93 Q 291.79 -38.14 292.97 -40.88 Q 294.15 -43.61 296.18 -45.61 Q 298.22 -47.61 300.95 -48.76 Q 303.69 -49.9 306.76 -49.9 L 306.76 -49.9 L 326.93 -49.9 Q 329.87 -49.9 332.6 -48.79 Q 335.34 -47.68 337.39 -45.68 Q 339.44 -43.68 340.67 -40.95 Q 341.9 -38.21 341.9 -34.93 L 341.9 -34.93 L 331.88 -34.93 Q 331.88 -36.06 331.44 -37.03 Q 331 -38.01 330.26 -38.67 Q 329.53 -39.34 328.64 -39.73 Q 327.75 -40.13 326.93 -40.13 L 326.93 -40.13 L 306.76 -40.13 Q 305.77 -40.13 304.87 -39.67 Q 303.96 -39.2 303.26 -38.47 Q 302.56 -37.73 302.15 -36.83 Q 301.74 -35.92 301.74 -34.93 L 301.74 -34.93 Q 301.74 -32.92 303.24 -31.45 Q 304.75 -29.98 306.76 -29.98 L 306.76 -29.98 L 326.93 -29.98 Q 329.94 -29.98 332.67 -28.81 Q 335.41 -27.65 337.42 -25.65 Q 339.44 -23.65 340.67 -20.92 Q 341.9 -18.18 341.9 -14.97 L 341.9 -14.97 Q 341.9 -11.69 340.67 -8.96 Q 339.44 -6.22 337.39 -4.24 Q 335.34 -2.26 332.64 -1.13 Q 329.94 0 326.93 0 L 326.93 0 L 306.76 0 Q 303.62 0 300.88 -1.16 Q 298.15 -2.32 296.12 -4.34 Q 294.08 -6.36 292.94 -9.09 Q 291.79 -11.83 291.79 -14.97 Z M 350.07 -17.36 L 350.07 -17.36 L 350.07 -32.33 Q 350.07 -35.89 351.44 -39.08 Q 352.8 -42.28 355.14 -44.62 Q 357.49 -46.96 360.66 -48.33 Q 363.84 -49.7 367.43 -49.7 L 367.43 -49.7 L 382.4 -49.7 Q 385.96 -49.7 389.15 -48.33 Q 392.35 -46.96 394.69 -44.62 Q 397.03 -42.28 398.4 -39.1 Q 399.77 -35.92 399.77 -32.33 L 399.77 -32.33 L 399.77 -17.36 Q 399.77 -13.81 398.4 -10.61 Q 397.03 -7.42 394.69 -5.08 Q 392.35 -2.73 389.17 -1.37 Q 385.99 0 382.4 0 L 382.4 0 L 367.43 0 Q 363.88 0 360.68 -1.37 Q 357.49 -2.73 355.14 -5.08 Q 352.8 -7.42 351.44 -10.6 Q 350.07 -13.77 350.07 -17.36 Z M 359.88 -32.33 L 359.88 -17.36 Q 359.88 -15.83 360.46 -14.49 Q 361.04 -13.16 362.1 -12.15 Q 363.16 -11.14 364.53 -10.58 Q 365.89 -10.01 367.43 -10.01 L 367.43 -10.01 L 382.4 -10.01 Q 385.55 -10.01 387.65 -12.12 Q 389.75 -14.22 389.75 -17.36 L 389.75 -17.36 L 389.75 -32.33 Q 389.75 -33.87 389.19 -35.24 Q 388.62 -36.61 387.61 -37.67 Q 386.61 -38.73 385.27 -39.31 Q 383.94 -39.89 382.4 -39.89 L 382.4 -39.89 L 367.43 -39.89 Q 365.83 -39.89 364.53 -39.27 Q 363.23 -38.66 362.17 -37.6 L 362.17 -37.6 Q 361.11 -36.54 360.49 -35.24 Q 359.88 -33.94 359.88 -32.33 L 359.88 -32.33 Z M 418.5 0 L 408.82 0 L 408.82 -49.77 L 458.59 -49.77 L 458.59 -39.89 L 418.5 -39.89 L 418.5 -29.98 L 439.41 -29.98 L 439.41 -19.96 L 418.5 -19.96 L 418.5 0 Z M 480.91 -39.96 L 461.02 -39.96 L 461.02 -49.7 L 510.71 -49.7 L 510.71 -39.96 L 490.85 -39.96 L 490.85 0 L 480.91 0 L 480.91 -39.96 Z" stroke-linecap="round" />
</g>
<g transform="matrix(1.9692780337941629 0 0 1.9692780337941629 639.8471113458953 920.8852198124307)" id="tagline-7f6be1b4-9ac9-487e-827d-2c0b3e86e46a-logo-path"  >
<path style="stroke: none; stroke-width: 0; stroke-dasharray: none; stroke-linecap: butt; stroke-dashoffset: 0; stroke-linejoin: miter; stroke-miterlimit: 4; fill: rgb(241,186,75); fill-rule: nonzero; opacity: 1;"  paint-order="stroke"  transform=" translate(-265.985, 12.545)" d="M 2 -7.49 L 2 -7.49 L 6.97 -7.49 Q 6.97 -6.51 7.74 -5.74 Q 8.51 -4.97 9.48 -4.97 L 9.48 -4.97 L 19.57 -4.97 Q 19.96 -4.97 20.4 -5.14 Q 20.83 -5.31 21.2 -5.65 Q 21.57 -5.98 21.81 -6.46 Q 22.05 -6.94 22.05 -7.49 L 22.05 -7.49 Q 22.05 -8.61 21.26 -9.3 Q 20.47 -9.98 19.57 -9.98 L 19.57 -9.98 L 9.48 -9.98 Q 7.88 -9.98 6.49 -10.57 Q 5.11 -11.16 4.11 -12.19 Q 3.11 -13.23 2.55 -14.58 Q 2 -15.93 2 -17.47 L 2 -17.47 Q 2 -19.07 2.59 -20.44 Q 3.18 -21.81 4.2 -22.81 Q 5.21 -23.81 6.58 -24.38 Q 7.95 -24.95 9.48 -24.95 L 9.48 -24.95 L 19.57 -24.95 Q 21.04 -24.95 22.4 -24.4 Q 23.77 -23.84 24.8 -22.84 Q 25.82 -21.84 26.44 -20.47 Q 27.05 -19.11 27.05 -17.47 L 27.05 -17.47 L 22.05 -17.47 Q 22.05 -18.03 21.82 -18.52 Q 21.6 -19 21.23 -19.34 Q 20.87 -19.67 20.42 -19.87 Q 19.98 -20.06 19.57 -20.06 L 19.57 -20.06 L 9.48 -20.06 Q 8.99 -20.06 8.54 -19.83 Q 8.08 -19.6 7.73 -19.23 Q 7.38 -18.87 7.18 -18.41 Q 6.97 -17.96 6.97 -17.47 L 6.97 -17.47 Q 6.97 -16.46 7.72 -15.72 Q 8.48 -14.99 9.48 -14.99 L 9.48 -14.99 L 19.57 -14.99 Q 21.07 -14.99 22.44 -14.41 Q 23.81 -13.83 24.81 -12.83 Q 25.82 -11.83 26.44 -10.46 Q 27.05 -9.09 27.05 -7.49 L 27.05 -7.49 Q 27.05 -5.84 26.44 -4.48 Q 25.82 -3.11 24.8 -2.12 Q 23.77 -1.13 22.42 -0.56 Q 21.07 0 19.57 0 L 19.57 0 L 9.48 0 Q 7.91 0 6.55 -0.58 Q 5.18 -1.16 4.16 -2.17 Q 3.14 -3.18 2.57 -4.55 Q 2 -5.91 2 -7.49 Z M 31.14 -8.68 L 31.14 -8.68 L 31.14 -16.17 Q 31.14 -17.94 31.82 -19.54 Q 32.5 -21.14 33.68 -22.31 Q 34.85 -23.48 36.44 -24.17 Q 38.02 -24.85 39.82 -24.85 L 39.82 -24.85 L 47.3 -24.85 Q 49.08 -24.85 50.68 -24.17 Q 52.28 -23.48 53.45 -22.31 Q 54.62 -21.14 55.3 -19.55 Q 55.99 -17.96 55.99 -16.17 L 55.99 -16.17 L 55.99 -8.68 Q 55.99 -6.9 55.3 -5.31 Q 54.62 -3.71 53.45 -2.54 Q 52.28 -1.37 50.69 -0.68 Q 49.1 0 47.3 0 L 47.3 0 L 39.82 0 Q 38.04 0 36.44 -0.68 Q 34.85 -1.37 33.68 -2.54 Q 32.5 -3.71 31.82 -5.3 Q 31.14 -6.89 31.14 -8.68 Z M 36.04 -16.17 L 36.04 -8.68 Q 36.04 -7.91 36.33 -7.25 Q 36.62 -6.58 37.15 -6.08 Q 37.68 -5.57 38.37 -5.29 Q 39.05 -5.01 39.82 -5.01 L 39.82 -5.01 L 47.3 -5.01 Q 48.88 -5.01 49.93 -6.06 Q 50.98 -7.11 50.98 -8.68 L 50.98 -8.68 L 50.98 -16.17 Q 50.98 -16.94 50.7 -17.62 Q 50.42 -18.3 49.91 -18.83 Q 49.41 -19.36 48.74 -19.65 Q 48.07 -19.94 47.3 -19.94 L 47.3 -19.94 L 39.82 -19.94 Q 39.02 -19.94 38.37 -19.64 Q 37.72 -19.33 37.19 -18.8 L 37.19 -18.8 Q 36.66 -18.27 36.35 -17.62 Q 36.04 -16.97 36.04 -16.17 L 36.04 -16.17 Z M 65.35 0 L 60.52 0 L 60.52 -24.88 L 85.4 -24.88 L 85.4 -19.94 L 65.35 -19.94 L 65.35 -14.99 L 75.81 -14.99 L 75.81 -9.98 L 65.35 -9.98 L 65.35 0 Z M 96.56 -19.98 L 86.61 -19.98 L 86.61 -24.85 L 111.46 -24.85 L 111.46 -19.98 L 101.53 -19.98 L 101.53 0 L 96.56 0 L 96.56 -19.98 Z M 118.84 0 L 114.18 -24.92 L 119.29 -24.92 L 122.72 -7.49 L 126.67 -14.36 L 130.67 -7.49 L 134.1 -24.92 L 139.21 -24.92 L 134 0 L 128.93 0 L 126.67 -4.41 L 123.88 0 L 118.84 0 Z M 147.31 0 L 141.91 0 L 151.69 -24.95 L 157.11 -24.95 L 166.95 0 L 161.55 0 L 160.08 -3.67 L 148.82 -3.67 L 147.31 0 Z M 154.46 -18.17 L 150.75 -8.75 L 158.13 -8.75 L 154.46 -18.17 Z M 175.48 0 L 170.44 0 L 170.44 -24.92 L 187.87 -24.92 Q 189.44 -24.71 190.83 -23.98 Q 192.21 -23.24 193.21 -22.11 Q 194.21 -20.97 194.79 -19.57 Q 195.37 -18.17 195.37 -16.66 L 195.37 -16.66 L 195.37 -16.3 L 195.37 -15.96 Q 195.37 -14.95 195.09 -13.92 Q 194.81 -12.89 194.28 -11.95 Q 193.75 -11.02 193.03 -10.25 Q 192.31 -9.48 191.47 -8.96 L 191.47 -8.96 L 195.47 0 L 189.97 0 L 186.66 -7.55 L 175.48 -7.55 L 175.48 0 Z M 175.48 -20.1 L 175.48 -12.6 L 186.66 -12.6 Q 187.42 -12.6 188.11 -12.88 Q 188.79 -13.16 189.31 -13.66 Q 189.83 -14.17 190.13 -14.83 Q 190.43 -15.5 190.43 -16.3 L 190.43 -16.3 Q 190.43 -17.04 190.12 -17.72 Q 189.8 -18.41 189.27 -18.94 Q 188.74 -19.47 188.07 -19.78 Q 187.39 -20.1 186.66 -20.1 L 186.66 -20.1 L 175.48 -20.1 Z M 224.82 0 L 199.93 0 L 199.93 -19.98 L 199.93 -24.88 L 224.82 -24.88 L 224.82 -19.98 L 204.84 -19.98 L 204.84 -15.06 L 215.23 -15.06 L 215.23 -10.05 L 204.84 -10.05 L 204.84 -5.01 L 224.82 -5.01 L 224.82 0 Z M 271.66 -0.03 L 254.23 -0.03 L 254.23 -24.92 L 271.66 -24.92 Q 273.23 -24.92 274.58 -24.34 Q 275.93 -23.77 276.95 -22.76 Q 277.97 -21.74 278.54 -20.39 Q 279.11 -19.04 279.11 -17.47 L 279.11 -17.47 Q 279.11 -16 278.61 -14.76 Q 278.1 -13.52 277.2 -12.49 L 277.2 -12.49 Q 278.1 -11.52 278.61 -10.24 Q 279.11 -8.96 279.11 -7.49 L 279.11 -7.49 Q 279.11 -5.91 278.54 -4.56 Q 277.97 -3.21 276.95 -2.2 Q 275.93 -1.2 274.58 -0.62 Q 273.23 -0.03 271.66 -0.03 L 271.66 -0.03 Z M 259.13 -9.98 L 259.13 -5.04 L 271.66 -5.04 Q 272.72 -5.04 273.42 -5.74 L 273.42 -5.74 Q 274.12 -6.44 274.12 -7.49 L 274.12 -7.49 Q 274.12 -8.56 273.42 -9.27 Q 272.72 -9.98 271.66 -9.98 L 271.66 -9.98 L 259.13 -9.98 Z M 259.13 -20.01 L 259.13 -14.99 L 271.66 -14.99 Q 272.72 -14.99 273.42 -15.69 L 273.42 -15.69 Q 274.12 -16.59 274.12 -17.47 L 274.12 -17.47 Q 274.12 -18.51 273.39 -19.26 Q 272.65 -20.01 271.66 -20.01 L 271.66 -20.01 L 259.13 -20.01 Z M 288.6 0 L 283.66 0 L 283.66 -24.92 L 288.6 -24.92 L 288.6 0 Z M 318.3 0 L 293.42 0 L 293.42 -19.98 L 293.42 -24.88 L 318.3 -24.88 L 318.3 -19.98 L 298.32 -19.98 L 298.32 -15.06 L 308.71 -15.06 L 308.71 -10.05 L 298.32 -10.05 L 298.32 -5.01 L 318.3 -5.01 L 318.3 0 Z M 328.19 0 L 323.19 0 L 323.19 -24.88 L 326.52 -24.88 L 328.19 -24.88 L 343.18 -16.27 L 343.18 -24.88 L 348.19 -24.88 L 348.19 0 L 343.18 0 L 343.18 -10.56 L 328.19 -19.17 L 328.19 0 Z M 382.62 0 L 377.58 0 L 377.58 -24.88 L 382.62 -24.88 L 382.62 -15.02 L 397.54 -15.02 L 397.54 -24.88 L 402.52 -24.88 L 402.52 0 L 397.54 0 L 397.54 -10.01 L 382.62 -10.01 L 382.62 0 Z M 432.27 0 L 407.39 0 L 407.39 -19.98 L 407.39 -24.88 L 432.27 -24.88 L 432.27 -19.98 L 412.29 -19.98 L 412.29 -15.06 L 422.68 -15.06 L 422.68 -10.05 L 412.29 -10.05 L 412.29 -5.01 L 432.27 -5.01 L 432.27 0 Z M 436.82 -8.75 L 436.82 -8.75 L 436.82 -16.34 Q 436.82 -18.15 437.5 -19.75 Q 438.18 -21.35 439.39 -22.54 Q 440.59 -23.74 442.2 -24.41 Q 443.81 -25.09 445.67 -25.09 L 445.67 -25.09 L 453.26 -25.09 Q 455.03 -25.09 456.63 -24.39 Q 458.23 -23.69 459.43 -22.52 Q 460.62 -21.35 461.31 -19.77 Q 462.01 -18.2 462.01 -16.46 L 462.01 -16.46 L 456.93 -16.46 Q 456.93 -17.19 456.64 -17.85 Q 456.35 -18.51 455.84 -19.02 Q 455.32 -19.53 454.66 -19.83 Q 453.99 -20.13 453.26 -20.13 L 453.26 -20.13 L 445.67 -20.13 Q 444.87 -20.13 444.18 -19.85 Q 443.5 -19.57 442.99 -19.06 Q 442.49 -18.54 442.19 -17.85 Q 441.89 -17.16 441.89 -16.34 L 441.89 -16.34 L 441.89 -8.75 Q 441.89 -7.11 442.98 -6.09 Q 444.06 -5.08 445.67 -5.08 L 445.67 -5.08 L 453.26 -5.08 Q 453.99 -5.08 454.68 -5.36 Q 455.36 -5.64 455.85 -6.13 Q 456.35 -6.61 456.64 -7.26 Q 456.93 -7.91 456.93 -8.68 L 456.93 -8.68 L 459.43 -8.68 L 462.01 -8.68 Q 462.01 -6.9 461.31 -5.32 Q 460.62 -3.74 459.43 -2.57 Q 458.23 -1.4 456.64 -0.7 Q 455.05 0 453.26 0 L 453.26 0 L 445.67 0 Q 443.81 0 442.2 -0.68 Q 440.59 -1.37 439.39 -2.55 Q 438.18 -3.74 437.5 -5.34 Q 436.82 -6.94 436.82 -8.75 Z M 471.24 0 L 466.19 0 L 466.19 -24.88 L 471.24 -24.88 L 471.24 -15.02 L 486.15 -15.02 L 486.15 -24.88 L 491.13 -24.88 L 491.13 0 L 486.15 0 L 486.15 -10.01 L 471.24 -10.01 L 471.24 0 Z M 495.66 -8.68 L 495.66 -8.68 L 495.66 -16.17 Q 495.66 -17.94 496.34 -19.54 Q 497.02 -21.14 498.19 -22.31 Q 499.37 -23.48 500.95 -24.17 Q 502.54 -24.85 504.34 -24.85 L 504.34 -24.85 L 511.82 -24.85 Q 513.6 -24.85 515.2 -24.17 Q 516.8 -23.48 517.97 -22.31 Q 519.14 -21.14 519.82 -19.55 Q 520.51 -17.96 520.51 -16.17 L 520.51 -16.17 L 520.51 -8.68 Q 520.51 -6.9 519.82 -5.31 Q 519.14 -3.71 517.97 -2.54 Q 516.8 -1.37 515.21 -0.68 Q 513.62 0 511.82 0 L 511.82 0 L 504.34 0 Q 502.56 0 500.96 -0.68 Q 499.37 -1.37 498.19 -2.54 Q 497.02 -3.71 496.34 -5.3 Q 495.66 -6.89 495.66 -8.68 Z M 500.56 -16.17 L 500.56 -8.68 Q 500.56 -7.91 500.85 -7.25 Q 501.14 -6.58 501.67 -6.08 Q 502.2 -5.57 502.89 -5.29 Q 503.57 -5.01 504.34 -5.01 L 504.34 -5.01 L 511.82 -5.01 Q 513.4 -5.01 514.45 -6.06 Q 515.5 -7.11 515.5 -8.68 L 515.5 -8.68 L 515.5 -16.17 Q 515.5 -16.94 515.22 -17.62 Q 514.93 -18.3 514.43 -18.83 Q 513.93 -19.36 513.26 -19.65 Q 512.59 -19.94 511.82 -19.94 L 511.82 -19.94 L 504.34 -19.94 Q 503.54 -19.94 502.89 -19.64 Q 502.24 -19.33 501.71 -18.8 L 501.71 -18.8 Q 501.18 -18.27 500.87 -17.62 Q 500.56 -16.97 500.56 -16.17 L 500.56 -16.17 Z M 525.39 -7.28 L 525.03 -24.92 L 529.97 -24.92 L 529.97 -7.28 L 525.39 -7.28 Z M 529.6 0 L 525.43 0 L 525.43 -4.17 L 529.6 -4.17 L 529.6 0 Z" stroke-linecap="round" />
</g>
</svg>